<?xml version="1.0" standalone="no"?>
<!DOCTYPE svg PUBLIC "-//W3C//DTD SVG 20010904//EN"
 "http://www.w3.org/TR/2001/REC-SVG-20010904/DTD/svg10.dtd">
<svg version="1.0" xmlns="http://www.w3.org/2000/svg"
 width="512.000000pt" height="512.000000pt" viewBox="0 0 512.000000 512.000000"
 preserveAspectRatio="xMidYMid meet">
<metadata>
Created by potrace 1.11, written by Peter Selinger 2001-2013
</metadata>
<g transform="translate(0.000000,512.000000) scale(0.100000,-0.100000)"
fill="#000000" stroke="none">
<path d="M0 4980 l0 -140 773 -2 773 -3 -131 -275 -131 -275 -642 -3 -642 -2
0 -1745 0 -1745 804 -2 804 -3 -131 -277 -132 -278 -672 0 -673 0 0 -115 0
-115 2560 0 2560 0 0 115 0 115 -660 0 c-363 0 -660 2 -660 4 0 3 62 129 137
280 l136 276 524 0 523 0 0 1745 0 1745 -690 0 c-379 0 -690 3 -690 8 0 4 61
130 135 280 l134 272 555 0 556 0 0 140 0 140 -2560 0 -2560 0 0 -140z m2580
-147 c0 -5 -59 -129 -130 -278 l-129 -270 -296 -3 -295 -2 113 227 c63 126
124 252 137 281 l24 52 288 0 c158 0 288 -3 288 -7z m926 -85 c-24 -51 -83
-177 -132 -280 l-89 -187 -258 -1 -257 0 28 58 c16 31 78 157 137 280 l108
222 253 0 253 0 -43 -92z m315 -814 c57 -26 115 -85 143 -144 l21 -45 0 -1205
0 -1205 -28 -57 c-34 -70 -94 -124 -161 -143 -75 -22 -2357 -22 -2432 0 -67
19 -127 73 -161 143 l-28 57 0 1205 0 1205 23 47 c44 88 114 143 201 158 25 4
570 7 1211 6 1163 -1 1165 -1 1211 -22z m-1248 -3301 c-41 -87 -102 -213 -134
-280 l-58 -123 -290 0 c-160 0 -291 2 -291 4 0 2 61 128 135 280 l134 276 290
0 290 0 -76 -157z m1035 148 c-1 -4 -61 -130 -133 -280 l-129 -271 -258 0
-258 0 140 280 140 280 251 0 c138 0 249 -4 247 -9z"/>
<path d="M1888 3476 c-98 -28 -182 -107 -219 -205 -18 -48 -20 -72 -17 -166 3
-96 7 -117 31 -162 34 -66 83 -115 150 -150 45 -24 63 -28 142 -28 71 0 100 5
137 22 69 32 131 94 164 166 26 56 29 72 29 172 0 98 -3 116 -27 166 -69 148
-239 228 -390 185z"/>
<path d="M3089 3474 c-100 -30 -192 -121 -221 -217 -7 -23 -13 -87 -13 -142 0
-87 4 -108 27 -156 35 -76 88 -133 156 -166 50 -24 69 -28 147 -28 84 0 94 2
154 35 72 39 129 106 155 183 24 71 22 221 -4 291 -23 60 -82 134 -136 166
-75 47 -181 60 -265 34z"/>
<path d="M3522 2686 c-102 -33 -157 -114 -150 -223 7 -115 91 -195 206 -196
124 -1 214 88 214 213 0 145 -136 249 -270 206z"/>
<path d="M1443 2655 c-89 -41 -139 -148 -114 -242 25 -91 97 -152 192 -161
202 -19 310 240 156 375 -65 57 -150 68 -234 28z"/>
<path d="M1924 2373 c-29 -104 -26 -275 5 -371 31 -96 82 -178 156 -253 74
-75 146 -119 250 -155 68 -23 97 -27 190 -28 95 0 121 4 190 28 182 63 321
192 391 361 19 47 12 41 -41 -38 -103 -155 -312 -266 -502 -267 -84 0 -199 27
-281 66 -139 66 -266 216 -322 378 -25 73 -34 196 -21 275 6 36 9 66 7 68 -2
2 -12 -27 -22 -64z"/>
<path d="M3531 2150 c-91 -22 -161 -111 -161 -207 0 -228 298 -301 402 -99 27
53 27 139 -1 193 -45 88 -146 136 -240 113z"/>
<path d="M1441 2118 c-78 -38 -129 -137 -116 -223 26 -177 257 -248 369 -114
40 47 56 90 56 146 -1 158 -168 261 -309 191z"/>
</g>
</svg>
